PathFileType	4	(X/Y/Z)	/Users/itak/Documents/Research/Walk-IL/dataset/trc/00489_00167.trc
DataRate	CameraRate	NumFrames	NumMarkers	Units	OrigDataRate	OrigDataStartFrame	OrigNumFrames
100.000000	100.000000	4	53	mm	100.000000	508	581
Frame#	Time	RPSI			LPSI			L3			STRN			T10			C7			CLAV			RBAK			LBAK			LSHO			LUPA			LAEL			LAOL			LWTS			LWPS			LFRA			LIFD			LHPS			LHTS			RSHO			RUPA			RAEL			RAOL			RWTS			RWPS			RFRA			RIFD			RHTS			RHPS			RBHD			LFHD			RFHD			LBHD			LHIP			RHIP			RASI			LASI			LKNE			LTHI			LANK			LTIP			LTOE			LMT1			LMT5			LHEE			RKNE			RTHI			RANK			RTIP			RTOE			RMT1			RMT5			RHEE			
		X1	Y1	Z1	X2	Y2	Z2	X3	Y3	Z3	X4	Y4	Z4	X5	Y5	Z5	X6	Y6	Z6	X7	Y7	Z7	X8	Y8	Z8	X9	Y9	Z9	X10	Y10	Z10	X11	Y11	Z11	X12	Y12	Z12	X13	Y13	Z13	X14	Y14	Z14	X15	Y15	Z15	X16	Y16	Z16	X17	Y17	Z17	X18	Y18	Z18	X19	Y19	Z19	X20	Y20	Z20	X21	Y21	Z21	X22	Y22	Z22	X23	Y23	Z23	X24	Y24	Z24	X25	Y25	Z25	X26	Y26	Z26	X27	Y27	Z27	X28	Y28	Z28	X29	Y29	Z29	X30	Y30	Z30	X31	Y31	Z31	X32	Y32	Z32	X33	Y33	Z33	X34	Y34	Z34	X35	Y35	Z35	X36	Y36	Z36	X37	Y37	Z37	X38	Y38	Z38	X39	Y39	Z39	X40	Y40	Z40	X41	Y41	Z41	X42	Y42	Z42	X43	Y43	Z43	X44	Y44	Z44	X45	Y45	Z45	X46	Y46	Z46	X47	Y47	Z47	X48	Y48	Z48	X49	Y49	Z49	X50	Y50	Z50	X51	Y51	Z51	X52	Y52	Z52	X53	Y53	Z53	

509	5.08	377.3325500488281	943.3465576171875	-344.6895751953125	235.1064300537109	954.6512451171875	-346.4432373046875	328.3850402832031	1048.104614257812	-361.6629943847656	318.7111511230469	1247.351196289062	-630.2999267578125	332.0768737792969	1172.20654296875	-344.8319396972656	352.1412048339844	1442.0068359375	-408.5763549804688	321.5005187988281	1359.765014648438	-592.4942016601562	446.9847106933594	1316.339721679688	-355.2766418457031	252.7920684814453	1397.95068359375	-367.934326171875	168.4530639648438	1422.350708007812	-465.3536682128906	66.04456329345703	1309.646484375	-451.8054504394531	11.30397129058838	1100.2666015625	-473.2067565917969	81.76642608642578	1075.722045898438	-400.6728515625	39.21183013916016	901.5579833984375	-570.9722900390625	-18.53223609924316	887.673583984375	-525.4847412109375	-5.136379718780518	1015.483093261719	-500.6989440917969	23.41930770874023	740.0780639648438	-584.1840209960938	-21.63433837890625	809.8265991210938	-539.6604614257812	26.32034111022949	817.1868896484375	-593.4672241210938	504.3033752441406	1404.927124023438	-489.8325500488281	579.1624755859375	1342.187622070312	-480.8600769042969	640.153564453125	1059.831298828125	-510.3170776367188	604.161865234375	1038.266235351562	-457.1345825195312	590.9164428710938	862.032958984375	-622.4474487304688	654.3026733398438	844.3319091796875	-564.1660766601562	651.14599609375	1002.209167480469	-519.098388671875	602.082275390625	707.9304809570312	-640.512451171875	605.6380004882812	769.1258544921875	-649.8884887695312	652.6683349609375	758.8402709960938	-589.2813720703125	438.7699279785156	1638.462768554688	-513.9656372070312	261.1360778808594	1655.253295898438	-618.1716918945312	389.3410339355469	1650.846313476562	-641.9364013671875	268.2826843261719	1649.231323242188	-464.8419189453125	114.9082412719727	869.38720703125	-493.0204467773438	510.3867797851562	836.9575805664062	-465.0712280273438	447.4122009277344	885.3566284179688	-566.7435302734375	192.3068084716797	904.3038940429688	-583.7084350585938	117.5996170043945	450.5437927246094	-541.9706420898438	103.4500122070312	605.1202392578125	-547.6085205078125	92.87067413330078	41.21392822265625	-466.0255126953125	94.56278228759766	300.5008850097656	-533.7124633789062	169.2481689453125	42.18814468383789	-697.490966796875	196.2385559082031	45.50407028198242	-618.9580688476562	83.74223327636719	45.85958862304688	-620.2137451171875	156.8397216796875	45.30213928222656	-421.516845703125	472.9900817871094	455.0762939453125	-545.0855712890625	515.0808715820312	710.8059692382812	-523.5700073242188	469.2521057128906	36.6093635559082	-432.5377807617188	478.920654296875	310.4554748535156	-530.0701293945312	414.7231750488281	44.95404434204102	-650.8605346679688	383.6395874023438	51.66449356079102	-584.9881591796875	492.5262145996094	40.59439849853516	-564.8773193359375	423.4536743164062	32.24642181396484	-367.6341247558594	
510	5.09	375.8039855957031	943.8519897460938	-345.837646484375	233.5400238037109	954.9993286132812	-347.5406494140625	326.6543579101562	1048.303588867188	-362.7029113769531	316.9213562011719	1247.813842773438	-630.9125366210938	330.2451171875	1172.421875	-345.4609680175781	350.0412902832031	1442.228881835938	-409.0352783203125	319.6068725585938	1360.18310546875	-592.9933471679688	444.9139709472656	1316.701782226562	-355.7939758300781	250.6403350830078	1398.069213867188	-368.5158081054688	166.5261840820312	1422.648315429688	-466.0850524902344	63.92465972900391	1310.02001953125	-453.1399841308594	9.185215950012207	1100.748413085938	-475.4715270996094	79.24500274658203	1075.935913085938	-402.6637878417969	37.25940322875977	902.272705078125	-573.7737426757812	-20.72992324829102	888.3551025390625	-528.5296630859375	-7.184334278106689	1016.115234375	-503.4193725585938	21.42251586914062	740.84033203125	-587.2630615234375	-23.83590316772461	810.5093994140625	-542.8726806640625	24.43583488464355	817.8798217773438	-596.4976806640625	502.3587341308594	1405.35546875	-490.2449951171875	577.1871337890625	1342.60205078125	-481.1404724121094	637.2437744140625	1060.039794921875	-508.4328918457031	600.6296997070312	1039.574096679688	-455.1881408691406	589.995849609375	858.8392944335938	-615.98828125	652.870849609375	843.277587890625	-556.54296875	648.5194091796875	1002.319641113281	-515.7463989257812	602.1701049804688	704.1580200195312	-628.7837524414062	605.3053588867188	764.9170532226562	-640.10888671875	651.9197387695312	757.0983276367188	-578.8582763671875	436.7664794921875	1638.755126953125	-514.0433959960938	259.3656005859375	1655.628295898438	-618.732666015625	387.6188354492188	1651.181640625	-642.1075439453125	266.1166381835938	1649.48828125	-465.3050842285156	113.0839080810547	869.6539916992188	-494.0918579101562	508.7014465332031	837.410888671875	-466.2308654785156	445.6281433105469	885.6568603515625	-567.873046875	190.4471130371094	904.57470703125	-584.7529907226562	116.6589202880859	450.5645141601562	-541.6636962890625	102.5486450195312	605.1041870117188	-547.9432373046875	92.85066223144531	41.14938354492188	-465.9833068847656	93.97068786621094	300.4671325683594	-533.3422241210938	169.1550445556641	42.22525787353516	-697.438232421875	196.133056640625	45.58776092529297	-618.8978271484375	83.67909240722656	45.82387161254883	-620.1844482421875	156.8181610107422	45.290771484375	-421.4982604980469	472.0751342773438	455.3143005371094	-545.0842895507812	513.2510986328125	711.0785522460938	-524.54296875	469.2223815917969	36.63297653198242	-432.5206298828125	478.3650512695312	310.7151184082031	-529.9588012695312	414.7648620605469	44.99256896972656	-650.7886352539062	383.5885314941406	51.72097015380859	-584.9552612304688	492.4933471679688	40.62289047241211	-564.870361328125	423.4420471191406	32.29953002929688	-367.6289672851562	
511	5.100000000000001	374.1099853515625	944.3756103515625	-346.9150695800781	231.7745666503906	955.2562255859375	-348.6819763183594	324.8309936523438	1048.509643554688	-363.7900695800781	315.080322265625	1248.2373046875	-631.4890747070312	328.4193420410156	1172.647094726562	-346.0863952636719	347.9827880859375	1442.459594726562	-409.484130859375	317.6942443847656	1360.589965820312	-593.490966796875	442.890869140625	1317.052490234375	-356.3369750976562	248.55322265625	1398.191772460938	-369.0395202636719	164.6221313476562	1422.93994140625	-466.7272338867188	61.82876968383789	1310.399780273438	-454.2801818847656	7.02239990234375	1101.25390625	-477.5341186523438	76.70986175537109	1076.13916015625	-404.4931945800781	35.27587509155273	903.0895385742188	-576.5270385742188	-22.91354560852051	889.0797729492188	-531.5610961914062	-9.293744087219238	1016.770385742188	-505.9754943847656	19.50816535949707	741.6924438476562	-590.4322509765625	-26.02916717529297	811.26025390625	-546.0836181640625	22.53653144836426	818.705322265625	-599.544921875	500.4166259765625	1405.776977539062	-490.7003479003906	575.2451171875	1343.058837890625	-481.4791564941406	634.4326171875	1060.313842773438	-506.5538024902344	597.217529296875	1040.917846679688	-453.2711486816406	588.9906005859375	855.8971557617188	-609.5635986328125	651.4254150390625	842.4598388671875	-549.116455078125	645.9544677734375	1002.533447265625	-512.43701171875	601.9539184570312	700.7718505859375	-616.9808959960938	604.7157592773438	761.0157470703125	-630.280517578125	650.9949340820312	755.6622924804688	-568.5504150390625	434.7527465820312	1639.077880859375	-514.0814819335938	257.5986328125	1656.002563476562	-619.2579956054688	385.8860778808594	1651.531494140625	-642.2447509765625	263.9538879394531	1649.763061523438	-465.7358093261719	111.2694473266602	869.7891845703125	-495.2113342285156	506.9054870605469	837.919677734375	-467.3155212402344	443.8240966796875	885.9681396484375	-568.9041137695312	188.5952606201172	904.7141723632812	-585.8472290039062	115.6973495483398	450.5345764160156	-541.4149780273438	101.6006088256836	605.0078735351562	-548.2042236328125	92.84252166748047	41.08522796630859	-465.9333801269531	93.41086578369141	300.3966674804688	-533.0230712890625	169.0913848876953	42.25917816162109	-697.38720703125	196.0602722167969	45.65837097167969	-618.8298950195312	83.642822265625	45.79860687255859	-620.148193359375	156.8197174072266	45.26803207397461	-421.468017578125	471.1741333007812	455.5823059082031	-544.9322509765625	511.315673828125	711.3790893554688	-525.4852294921875	469.1899719238281	36.64645004272461	-432.4941101074219	477.8447265625	310.9945068359375	-529.71435546875	414.8140258789062	45.03377151489258	-650.7110595703125	383.545654296875	51.78472518920898	-584.9183349609375	492.4701843261719	40.64835739135742	-564.8598022460938	423.412841796875	32.33035659790039	-367.6178283691406	
512	5.11	372.2592468261719	944.8870849609375	-347.9161071777344	229.8346252441406	955.4349365234375	-349.8564453125	322.9195556640625	1048.707153320312	-364.9057006835938	313.1903076171875	1248.610229492188	-632.0406494140625	326.5779418945312	1172.859008789062	-346.7278442382812	345.9593505859375	1442.684936523438	-409.9273681640625	315.7646179199219	1360.966430664062	-593.9921264648438	440.8976135253906	1317.371459960938	-356.8964233398438	246.5198516845703	1398.3076171875	-369.5168762207031	162.7201690673828	1423.202026367188	-467.2843017578125	59.7573356628418	1310.76025390625	-455.2340087890625	4.811379432678223	1101.75244140625	-479.3947143554688	74.15882110595703	1076.306396484375	-406.1614685058594	33.26437759399414	903.9951171875	-579.2212524414062	-25.07624244689941	889.823486328125	-534.5647583007812	-11.46669292449951	1017.419921875	-508.3460388183594	17.65107727050781	742.61279296875	-593.720458984375	-28.21133422851562	812.0618286132812	-549.296875	20.61901664733887	819.658447265625	-602.6157836914062	498.47607421875	1406.168334960938	-491.18896484375	573.3292846679688	1343.524780273438	-481.8539428710938	631.7406616210938	1060.623046875	-504.6890869140625	593.97265625	1042.251342773438	-451.3834533691406	587.8737182617188	853.1986694335938	-603.2293701171875	649.9802856445312	841.8477783203125	-541.9840698242188	643.4758911132812	1002.820251464844	-509.2022094726562	601.3872680664062	697.77783203125	-605.2258911132812	603.8265991210938	757.439697265625	-620.500732421875	649.8953247070312	754.503173828125	-558.4860229492188	432.7323608398438	1639.415283203125	-514.0726928710938	255.8386688232422	1656.37646484375	-619.7402954101562	384.1511840820312	1651.8984375	-642.343505859375	261.7968444824219	1650.042236328125	-466.1296997070312	109.4856338500977	869.802978515625	-496.3648681640625	505.0191955566406	838.4511108398438	-468.3092956542969	442.017333984375	886.2634887695312	-569.830078125	186.771484375	904.7327270507812	-586.9763793945312	114.7384719848633	450.4573059082031	-541.2501831054688	100.580940246582	604.8516235351562	-548.4188232421875	92.83260345458984	41.01324844360352	-465.8844604492188	92.87241363525391	300.2952270507812	-532.7831420898438	169.0494842529297	42.29140853881836	-697.3330078125	196.0048980712891	45.7220344543457	-618.753662109375	83.61617279052734	45.77490234375	-620.1077880859375	156.8222808837891	45.23720169067383	-421.4278259277344	470.2950439453125	455.8712768554688	-544.6626586914062	509.4366149902344	711.719482421875	-526.279052734375	469.1624755859375	36.65941619873047	-432.4557495117188	477.3590087890625	311.2853698730469	-529.3636474609375	414.8684387207031	45.07647323608398	-650.6306762695312	383.5166625976562	51.85004806518555	-584.8818969726562	492.4558715820312	40.67083358764648	-564.8456420898438	423.3646545410156	32.33964538574219	-367.6015625	
